<svg width="256" height="256" viewBox="0 0 256 256" fill="none" xmlns="http://www.w3.org/2000/svg">
<g clip-path="url(#clip0_209_2)">
<mask id="mask0_209_2" style="mask-type:luminance" maskUnits="userSpaceOnUse" x="105" y="0" width="151" height="256">
<path d="M105.761 0H256V256H105.761V0Z" fill="white"/>
</mask>
<g mask="url(#mask0_209_2)">
<path d="M254.795 111.061L238.505 105.272C235.584 90.9739 229.951 77.667 222.184 65.8941L229.604 50.2798C222.713 41.2811 214.657 33.2249 205.662 26.3337L190.048 33.7585C178.275 25.9869 164.968 20.3583 150.666 17.4328L144.877 1.14714C139.337 0.417998 133.691 0.0356445 127.951 0.0356445C122.211 0.0356445 116.565 0.417998 111.025 1.14714L107.762 10.3326L106.828 12.9557V42.7171C113.595 41.0454 120.668 40.1607 127.951 40.1607C176.461 40.1607 215.777 79.481 215.777 127.987C215.777 166.173 191.409 198.669 157.37 210.767C153.858 212.02 150.243 213.052 146.535 213.843L154.085 206.312L171.953 188.474V173.162C178.942 171.584 184.162 165.333 184.162 157.868C184.162 149.203 177.141 142.187 168.481 142.187C159.82 142.187 152.8 149.203 152.8 157.868C152.8 165.329 158.015 171.575 164.999 173.158V185.593L140.72 209.833L139.142 211.402V150.137L171.953 117.388V102.071C178.942 100.493 184.162 94.2417 184.162 86.7813C184.162 78.1161 177.141 71.0959 168.481 71.0959C159.82 71.0959 152.8 78.1161 152.8 86.7813C152.8 94.2417 158.015 100.488 164.999 102.071V114.502L132.192 147.251V255.871C132.766 255.853 133.326 255.831 133.895 255.804C135.651 255.72 137.403 255.604 139.142 255.453C139.711 255.404 140.28 255.355 140.844 255.298C142.196 255.164 143.539 255.009 144.877 254.826L150.666 238.541C164.968 235.62 178.275 229.987 190.048 222.219L205.662 229.635C214.657 222.753 222.713 214.692 229.604 205.698L222.184 190.079C229.951 178.311 235.584 165.004 238.505 150.706L254.795 144.908C255.524 139.373 255.907 133.727 255.907 127.987C255.907 122.247 255.524 116.601 254.795 111.061Z" fill="#003970"/>
</g>
<mask id="mask1_209_2" style="mask-type:luminance" maskUnits="userSpaceOnUse" x="0" y="18" width="154" height="238">
<path d="M0 18.1218H153.564V256H0V18.1218Z" fill="white"/>
</mask>
<g mask="url(#mask1_209_2)">
<path d="M137.866 78.4939C132.321 78.4939 127.831 74.0035 127.831 68.4549C127.831 62.9152 132.321 58.4203 137.866 58.4203C143.41 58.4203 147.905 62.9152 147.905 68.4549C147.905 74.0035 143.41 78.4939 137.866 78.4939ZM84.0203 113.995C78.4717 113.995 73.9768 109.5 73.9768 103.952C73.9768 98.4119 78.4717 93.917 84.0203 93.917C89.56 93.917 94.0549 98.4119 94.0549 103.952C94.0549 109.5 89.56 113.995 84.0203 113.995ZM40.125 127.987C40.125 91.823 61.9815 60.7677 93.1968 47.3097V66.9877L116.752 90.4358V181.525L87.497 152.257V119.246C94.4817 117.668 99.7013 111.421 99.7013 103.952C99.7013 95.2953 92.6766 88.2706 84.0203 88.2706C75.3595 88.2706 68.3348 95.2953 68.3348 103.952C68.3348 111.421 73.5589 117.672 80.548 119.246V155.143L116.752 191.351V215.106C73.5366 209.606 40.125 172.696 40.125 127.987ZM137.866 52.7739C129.205 52.7739 122.189 59.7941 122.189 68.4549C122.189 75.9241 127.4 82.1663 134.389 83.7491V112.541L123.696 123.212V87.5504L100.15 64.1022V18.602C99.7991 18.6909 99.4523 18.7754 99.1055 18.8687C97.1182 19.3978 95.1441 19.9714 93.1968 20.6027C83.4334 23.7549 74.2569 28.2142 65.8584 33.7584L50.2441 26.3336C41.2454 33.2248 33.1893 41.281 26.298 50.2797L33.7228 65.894C25.9512 77.667 20.3182 90.9738 17.3927 105.272L1.1115 111.061C0.382354 116.6 0 122.247 0 127.987C0 133.726 0.382354 139.373 1.1115 144.908L17.3927 150.706C20.3182 165.004 25.9468 178.311 33.7228 190.079L26.298 205.698C33.1893 214.692 41.2454 222.753 50.2441 229.635L65.8584 222.219C77.6314 229.987 90.9382 235.62 105.237 238.541L111.025 254.826C112.924 255.08 114.831 255.289 116.752 255.453C117.316 255.502 117.885 255.551 118.454 255.591C120.193 255.72 121.94 255.813 123.696 255.871V133.028L141.338 115.422V83.7535C148.331 82.1707 153.547 75.9241 153.547 68.4549C153.547 59.7941 146.526 52.7739 137.866 52.7739Z" fill="#001F3D"/>
</g>
</g>
<defs>
<clipPath id="clip0_209_2">
<rect width="256" height="256" fill="white"/>
</clipPath>
</defs>
</svg>
